<svg width="140" height="122" viewBox="0 0 140 122" fill="none" xmlns="http://www.w3.org/2000/svg">
<path d="M2.6709 9.73647V24.4976L5.94548 25.6629L80.8516 113.064L90.266 115.783M2.6709 9.73647L50.5617 3.13281L59.5668 6.24042M2.6709 9.73647L10.8574 12.4556M90.266 115.783L138.975 109.18V99.4685M90.266 115.783V105.684M138.975 99.4685L129.97 96.7494M138.975 99.4685L90.266 105.684M129.97 96.7494V88.9804M129.97 96.7494L82.0796 102.576M129.97 88.9804L121.784 86.2612M129.97 88.9804L82.0796 95.1956M121.784 86.2612V78.8806M121.784 86.2612L72.6651 92.8649M121.784 78.8806L113.188 76.1615M121.784 78.8806L72.6651 85.0959M113.188 76.1615V68.7809M113.188 76.1615L64.0694 82.3767M113.188 68.7809L104.183 65.8115M113.188 68.7809L64.0694 74.6077M104.183 65.8115V58.2928M104.183 65.8115L55.4736 71.8885M104.183 58.2928L94.7686 55.0831M104.183 58.2928L55.4736 64.1195M94.7686 55.0831V47.4162M94.7686 55.0831L46.0591 61.0119M94.7686 47.4162L86.5821 44.9193M94.7686 47.4162L46.0591 53.6314M86.5821 44.9193V37.3164M86.5821 44.9193L36.7751 51.3007M86.5821 37.3164L77.1677 34.5973M86.5821 37.3164L36.7751 43.5317M77.1677 34.5973V27.1326M77.1677 34.5973L28.7509 40.8125M77.1677 27.1326L68.1626 24.1091M77.1677 27.1326L28.8676 33.0435M68.1626 24.1091V16.7286M68.1626 24.1091L19.8625 30.3243M68.1626 16.7286L59.5668 13.621M68.1626 16.7286L19.8625 22.5553M59.5668 13.621V6.24042M59.5668 13.621L10.8574 19.8362M59.5668 6.24042L10.8574 12.4556M10.8574 12.4556V19.8362M10.8574 19.8362L19.8625 22.5553M19.8625 22.5553V30.3243M19.8625 30.3243L28.8676 33.0435M28.8676 33.0435L28.7509 40.8125M28.7509 40.8125L36.7751 43.5317M36.7751 43.5317V51.3007M36.7751 51.3007L46.0591 53.6314M46.0591 53.6314V61.0119M46.0591 61.0119L55.4736 64.1195M55.4736 64.1195V71.8885M55.4736 71.8885L64.0694 74.6077M64.0694 74.6077V82.3767M64.0694 82.3767L72.6651 85.0959M72.6651 85.0959V92.8649M72.6651 92.8649L82.0796 95.1956M82.0796 95.1956V102.576M82.0796 102.576L90.266 105.684" stroke="#202020" stroke-width="0.777778"/>
</svg>
