<svg width="232" height="220" viewBox="0 0 232 220" fill="none" xmlns="http://www.w3.org/2000/svg">
<path fill-rule="evenodd" clip-rule="evenodd" d="M0 0H8.33333V8.33333H0V0ZM21.6667 0H30V8.33333H21.6667V0ZM51.6667 0H43.3333V8.33333H51.6667V0ZM65 0H73.3333V8.33333H65V0ZM95 0H86.6667V8.33333H95V0ZM108.333 0H116.667V8.33333H108.333V0ZM138.333 0H130V8.33333H138.333V0ZM151.667 0H160V8.33333H151.667V0ZM8.33333 21.6667H0V30H8.33333V21.6667ZM30 21.6667H21.6667V30H30V21.6667ZM43.3333 21.6667H51.6667V30H43.3333V21.6667ZM73.3333 21.6667H65V30H73.3333V21.6667ZM86.6667 21.6667H95V30H86.6667V21.6667ZM116.667 21.6667H108.333V30H116.667V21.6667ZM130 21.6667H138.333V30H130V21.6667ZM160 21.6667H151.667V30H160V21.6667ZM21.6667 43.3333H30V51.6667H21.6667V43.3333ZM0 43.3337H8.33333V51.667H0V43.3337ZM51.6667 43.3333H43.3333V51.6667H51.6667V43.3333ZM65 43.3333H73.3333V51.6667H65V43.3333ZM95 43.3333H86.6667V51.6667H95V43.3333ZM108.333 43.3333H116.667V51.6667H108.333V43.3333ZM138.333 43.3333H130V51.6667H138.333V43.3333ZM151.667 43.3333H160V51.6667H151.667V43.3333ZM8.33333 65H0V73.3333H8.33333V65ZM30 65H21.6667V73.3333H30V65ZM43.3333 65H51.6667V73.3333H43.3333V65ZM73.3333 65H65V73.3333H73.3333V65ZM86.6667 65H95V73.3333H86.6667V65ZM116.667 65H108.333V73.3333H116.667V65ZM130 65H138.333V73.3333H130V65ZM160 65H151.667V73.3333H160V65ZM0 86.6667H8.33333V95H0V86.6667ZM21.6667 86.6667H30V95H21.6667V86.6667ZM51.6667 86.6667H43.3333V95H51.6667V86.6667ZM65 86.6667H73.3333V95H65V86.6667ZM95 86.6667H86.6667V95H95V86.6667ZM108.333 86.6667H116.667V95H108.333V86.6667ZM138.333 86.6667H130V95H138.333V86.6667ZM151.667 86.6667H160V95H151.667V86.6667ZM30 108.333H21.6667V116.667H30V108.333ZM8.33333 108.334H0V116.667H8.33333V108.334ZM43.3333 108.333H51.6667V116.667H43.3333V108.333ZM73.3333 108.333H65V116.667H73.3333V108.333ZM86.6667 108.333H95V116.667H86.6667V108.333ZM116.667 108.333H108.333V116.667H116.667V108.333ZM130 108.333H138.333V116.667H130V108.333ZM160 108.333H151.667V116.667H160V108.333ZM0 130H8.33333V138.333H0V130ZM21.6667 130H30V138.333H21.6667V130ZM51.6667 130H43.3333V138.333H51.6667V130ZM65 130H73.3333V138.333H65V130ZM95 130H86.6667V138.333H95V130ZM108.333 130H116.667V138.333H108.333V130ZM138.333 130H130V138.333H138.333V130ZM151.667 130H160V138.333H151.667V130ZM0 151.667H8.33333V160H0V151.667ZM21.6667 151.667H30V160H21.6667V151.667ZM51.6667 151.667H43.3333V160H51.6667V151.667ZM65 151.667H73.3333V160H65V151.667ZM95 151.667H86.6667V160H95V151.667ZM108.333 151.667H116.667V160H108.333V151.667ZM138.333 151.667H130V160H138.333V151.667ZM151.667 151.667H160V160H151.667V151.667Z" fill="#F4F4F4"/>
<path fill-rule="evenodd" clip-rule="evenodd" d="M136 124H141V129H136V124ZM149 124H154V129H149V124ZM167 124H162V129H167V124ZM175 124H180V129H175V124ZM193 124H188V129H193V124ZM201 124H206V129H201V124ZM219 124H214V129H219V124ZM227 124H232V129H227V124ZM141 137H136V142H141V137ZM154 137H149V142H154V137ZM162 137H167V142H162V137ZM180 137H175V142H180V137ZM188 137H193V142H188V137ZM206 137H201V142H206V137ZM214 137H219V142H214V137ZM232 137H227V142H232V137ZM136 150H141V155H136V150ZM149 150H154V155H149V150ZM167 150H162V155H167V150ZM175 150H180V155H175V150ZM193 150H188V155H193V150ZM201 150H206V155H201V150ZM219 150H214V155H219V150ZM227 150H232V155H227V150ZM141 163H136V168H141V163ZM154 163H149V168H154V163ZM162 163H167V168H162V163ZM180 163H175V168H180V163ZM188 163H193V168H188V163ZM206 163H201V168H206V163ZM214 163H219V168H214V163ZM232 163H227V168H232V163ZM136 176H141V181H136V176ZM149 176H154V181H149V176ZM167 176H162V181H167V176ZM175 176H180V181H175V176ZM193 176H188V181H193V176ZM201 176H206V181H201V176ZM219 176H214V181H219V176ZM227 176H232V181H227V176ZM141 189H136V194H141V189ZM154 189H149V194H154V189ZM162 189H167V194H162V189ZM180 189H175V194H180V189ZM188 189H193V194H188V189ZM206 189H201V194H206V189ZM214 189H219V194H214V189ZM232 189H227V194H232V189ZM136 202H141V207H136V202ZM149 202H154V207H149V202ZM167 202H162V207H167V202ZM175 202H180V207H175V202ZM193 202H188V207H193V202ZM201 202H206V207H201V202ZM219 202H214V207H219V202ZM227 202H232V207H227V202ZM136 215H141V220H136V215ZM149 215H154V220H149V215ZM167 215H162V220H167V215ZM175 215H180V220H175V215ZM193 215H188V220H193V215ZM201 215H206V220H201V215ZM219 215H214V220H219V215ZM227 215H232V220H227V215Z" fill="#FBCBA4"/>
</svg>
